<?xml version="1.0" standalone="no"?>
<!DOCTYPE svg PUBLIC "-//W3C//DTD SVG 20010904//EN"
 "http://www.w3.org/TR/2001/REC-SVG-20010904/DTD/svg10.dtd">
<svg version="1.0" xmlns="http://www.w3.org/2000/svg"
 width="225.000000pt" height="225.000000pt" viewBox="0 0 225.000000 225.000000"
 preserveAspectRatio="xMidYMid meet">

<g transform="translate(0.000000,225.000000) scale(0.100000,-0.100000)"
fill="#000000" stroke="none">
<path d="M529 1701 c-16 -16 -29 -37 -29 -45 0 -9 -4 -16 -9 -16 -5 0 -23 -12
-40 -26 -25 -20 -31 -34 -31 -64 0 -54 27 -84 76 -84 22 0 47 3 56 8 12 6 36
-10 95 -65 43 -39 79 -76 81 -80 2 -5 -41 -10 -95 -11 -94 -3 -98 -4 -101 -27
-6 -37 13 -46 110 -51 l91 -5 14 -54 c16 -65 43 -110 101 -172 l43 -47 -58
-54 c-120 -113 -138 -127 -153 -117 -27 17 -78 10 -106 -15 -22 -18 -28 -32
-27 -61 1 -41 35 -85 65 -85 11 0 18 -7 18 -19 0 -11 11 -32 24 -48 19 -22 33
-28 64 -28 67 0 106 57 83 118 -9 24 -6 30 32 62 l42 36 8 -52 c9 -65 37 -111
84 -141 46 -27 188 -38 258 -18 74 21 135 105 135 188 0 22 2 22 44 -13 42
-34 43 -37 33 -65 -14 -38 -1 -76 35 -103 23 -17 34 -19 65 -11 31 7 42 17 58
51 11 23 26 42 33 43 27 0 62 48 62 85 0 65 -71 107 -129 76 -14 -8 -37 8
-118 82 l-101 91 42 37 c49 44 102 137 112 197 l7 42 86 0 c102 0 128 12 117
53 -6 27 -7 27 -101 27 -52 0 -95 4 -95 8 0 5 36 41 80 81 78 71 82 73 110 61
85 -35 156 61 99 134 -11 14 -27 26 -35 26 -8 0 -21 15 -29 34 -29 70 -101 88
-150 39 -24 -25 -27 -33 -22 -75 6 -46 5 -47 -49 -98 l-54 -51 -39 48 c-45 57
-114 104 -189 129 -77 24 -203 15 -276 -20 -61 -30 -135 -91 -155 -130 -8 -15
-18 -25 -22 -24 -4 2 -32 27 -62 55 -53 50 -55 54 -44 82 32 85 -78 148 -144
82z m99 3 c34 -24 45 -60 28 -92 -13 -25 -12 -28 50 -87 l64 -60 -18 -58 -19
-59 -80 76 -81 76 -33 -14 c-52 -22 -108 9 -109 60 0 32 37 74 66 74 20 0 24
5 24 29 0 20 9 36 26 50 32 25 52 26 82 5z m1067 -9 c14 -13 25 -36 25 -50 0
-20 5 -25 24 -25 27 0 66 -42 66 -69 0 -24 -28 -61 -54 -71 -13 -5 -34 -3 -55
6 l-33 14 -84 -76 c-62 -57 -84 -72 -84 -58 0 11 -9 37 -18 58 l-18 40 64 61
c61 58 63 61 52 87 -23 48 16 105 73 107 10 1 29 -10 42 -24z m-494 -49 c97
-22 193 -92 242 -175 l18 -31 -341 0 -342 0 22 38 c45 76 134 141 230 168 60
16 103 16 171 0z m486 -347 c6 -6 9 -18 6 -25 -4 -12 -100 -14 -573 -14 -384
0 -571 3 -575 10 -4 6 -1 17 5 25 11 13 94 15 569 15 398 0 560 -3 568 -11z
m-197 -74 c0 -8 -9 -39 -20 -69 -94 -250 -409 -326 -605 -145 -50 46 -99 131
-110 192 l-7 37 371 0 c319 0 371 -2 371 -15z m-594 -317 c-8 -19 -18 -58 -22
-87 -6 -46 -13 -58 -55 -98 -40 -37 -47 -49 -39 -63 28 -53 -5 -110 -64 -110
-39 0 -66 28 -66 67 0 17 -6 23 -20 23 -29 0 -70 44 -70 75 0 32 41 75 72 75
13 0 32 -6 43 -14 19 -13 28 -6 123 81 57 52 106 93 108 90 2 -2 -2 -20 -10
-39z m563 -71 c79 -72 85 -75 105 -62 11 8 31 15 44 15 31 0 72 -43 72 -75 0
-31 -41 -75 -70 -75 -15 0 -20 -6 -20 -25 0 -35 -33 -65 -73 -65 -55 0 -88 54
-62 102 13 27 13 29 -39 73 -49 43 -53 49 -55 97 -1 28 -9 67 -17 86 -24 58
-32 63 115 -71z m-492 91 c29 -11 33 -16 33 -50 0 -45 -17 -49 -67 -18 -38 22
-37 21 -21 55 13 29 11 29 55 13z m362 -18 c9 -29 8 -32 -22 -50 -51 -31 -67
-27 -67 18 0 32 4 40 28 49 43 17 49 15 61 -17z m-221 -54 l3 -39 -47 7 c-26
3 -49 8 -52 11 -2 2 -2 19 2 38 6 33 7 33 49 28 41 -6 42 -7 45 -45z m120 -22
c-3 -2 -26 -7 -51 -10 l-47 -7 0 41 0 41 43 3 c40 3 42 2 51 -30 4 -18 6 -35
4 -38z m-284 6 c44 -20 46 -23 46 -60 0 -47 -12 -50 -61 -17 -27 18 -35 30
-37 60 -2 20 -1 37 1 37 3 0 25 -9 51 -20z m404 -26 c-2 -19 -14 -36 -37 -51
-49 -33 -61 -30 -61 15 0 35 4 40 43 59 47 24 60 18 55 -23z m-238 -50 c0 -43
-1 -44 -32 -44 -74 0 -88 16 -72 75 4 17 12 20 55 17 l49 -4 0 -44z m125 10
c3 -20 4 -38 1 -41 -3 -3 -28 -8 -56 -11 l-50 -5 0 47 0 46 49 0 c48 0 49 0
56 -36z m-259 -50 c56 -17 223 -20 272 -5 19 6 49 19 68 30 l34 20 0 -23 c0
-12 -7 -45 -15 -73 -28 -95 -109 -139 -240 -131 -129 9 -188 62 -202 181 -6
52 -6 52 15 34 11 -10 42 -25 68 -33z"/>
<path d="M901 1529 c-42 -42 -51 -60 -28 -58 18 1 90 86 79 93 -6 3 -28 -13
-51 -35z"/>
<path d="M1328 1545 c-8 -8 50 -85 64 -85 16 0 7 21 -25 56 -18 19 -35 32 -39
29z"/>
<path d="M946 1507 c-28 -37 -32 -47 -16 -47 14 0 59 51 60 68 0 22 -18 13
-44 -21z"/>
<path d="M1260 1518 c1 -20 37 -64 46 -55 9 9 -19 60 -35 65 -6 2 -11 -2 -11
-10z"/>
<path d="M1005 1490 c-10 -11 -15 -23 -12 -27 8 -7 47 25 47 39 0 14 -16 9
-35 -12z"/>
<path d="M934 1210 c-33 -13 -54 -50 -54 -93 0 -101 139 -136 185 -47 46 90
-37 178 -131 140z"/>
<path d="M1209 1191 c-63 -64 -20 -171 69 -171 51 0 89 30 98 76 19 100 -96
165 -167 95z"/>
<path d="M1094 995 c-18 -14 -18 -16 -1 -29 19 -15 53 -11 64 7 3 5 -2 16 -12
24 -24 16 -27 16 -51 -2z"/>
</g>
</svg>
